<?xml version="1.0" encoding="UTF-8" standalone="no"?>
<!-- Created with Inkscape (http://www.inkscape.org/) -->

<svg
   width="96.038109mm"
   height="113.4955mm"
   viewBox="0 0 96.038109 113.4955"
   version="1.1"
   id="svg1"
   xmlns="http://www.w3.org/2000/svg"
   xmlns:svg="http://www.w3.org/2000/svg">
  <defs
     id="defs1">
    <rect
       x="204.10732"
       y="736.63196"
       width="396.81503"
       height="92.825401"
       id="rect1" />
    <marker
       style="overflow:visible"
       id="marker3"
       refX="0"
       refY="0"
       orient="auto-start-reverse"
       markerWidth="3"
       markerHeight="3"
       viewBox="0 0 1 1"
       preserveAspectRatio="xMidYMid"
       markerUnits="userSpaceOnUse">
      <path
         style="fill:none;stroke:context-stroke;stroke-width:1;stroke-linecap:round"
         d="M 3,-3 0,0 3,3"
         transform="rotate(180,0.125,0)"
         id="path2" />
    </marker>
    <marker
       style="overflow:visible"
       id="ArrowWideRounded"
       refX="0"
       refY="0"
       orient="auto-start-reverse"
       markerWidth="3"
       markerHeight="3"
       viewBox="0 0 1 1"
       preserveAspectRatio="xMidYMid"
       markerUnits="userSpaceOnUse">
      <path
         style="fill:none;stroke:context-stroke;stroke-width:1;stroke-linecap:round"
         d="M 3,-3 0,0 3,3"
         transform="rotate(180,0.125,0)"
         id="path3" />
    </marker>
  </defs>
  <path
     style="opacity:1;mix-blend-mode:normal;fill:none;fill-opacity:1;stroke:#18304e;stroke-width:1.302;stroke-linecap:butt;stroke-linejoin:round;stroke-miterlimit:3.5;stroke-dasharray:none;stroke-opacity:1;paint-order:markers fill stroke"
     d="m 47.971242,53.295834 -6.162805,4.44393 0.04192,6.20473"
     id="path7" />
  <path
     style="opacity:1;mix-blend-mode:normal;fill:none;fill-opacity:1;stroke:#39a17f;stroke-width:1.29877;stroke-linecap:butt;stroke-linejoin:round;stroke-miterlimit:3.5;stroke-dasharray:none;stroke-opacity:1;paint-order:markers fill stroke"
     d="m 53.050422,40.016334 h 15.28205 v 0.11579"
     id="path16" />
  <path
     style="opacity:1;mix-blend-mode:normal;fill:none;fill-opacity:1;stroke:#39a17f;stroke-width:1.45511;stroke-linecap:butt;stroke-linejoin:round;stroke-miterlimit:3.5;stroke-dasharray:none;stroke-opacity:1;paint-order:markers fill stroke"
     d="m 70.911232,37.209584 v -7.87161 l 7.11999,0.11408"
     id="path17" />
  <path
     style="opacity:1;mix-blend-mode:normal;fill:none;fill-opacity:1;stroke:#39a17f;stroke-width:1.302;stroke-linecap:butt;stroke-linejoin:round;stroke-miterlimit:3.5;stroke-dasharray:none;stroke-opacity:1;paint-order:markers fill stroke"
     d="m 47.946802,35.169964 v -8.64023"
     id="path18" />
  <path
     style="opacity:1;mix-blend-mode:normal;fill:none;fill-opacity:1;stroke:#39a17f;stroke-width:1.302;stroke-linecap:butt;stroke-linejoin:round;stroke-miterlimit:3.5;stroke-dasharray:none;stroke-opacity:1;paint-order:markers fill stroke"
     d="m 51.664652,36.445034 4.14731,-3.22569"
     id="path19" />
  <path
     style="opacity:1;mix-blend-mode:normal;fill:none;fill-opacity:1;stroke:#39a17f;stroke-width:1.40116;stroke-linecap:butt;stroke-linejoin:round;stroke-miterlimit:3.5;stroke-dasharray:none;stroke-opacity:1;paint-order:markers fill stroke"
     d="m 58.836432,30.745344 2.73835,-2.29009 3.53702,-0.80827"
     id="path20" />
  <path
     style="opacity:1;mix-blend-mode:normal;fill:none;fill-opacity:1;stroke:#39a17f;stroke-width:1.22575;stroke-linecap:butt;stroke-linejoin:round;stroke-miterlimit:3.5;stroke-dasharray:none;stroke-opacity:1;paint-order:markers fill stroke"
     d="m 61.496922,28.276904 -1.71653,-6.68818"
     id="path21" />
  <path
     style="opacity:1;mix-blend-mode:normal;fill:none;fill-opacity:1;stroke:#18304e;stroke-width:1.35721;stroke-linecap:butt;stroke-linejoin:round;stroke-miterlimit:3.5;stroke-dasharray:none;stroke-opacity:1;paint-order:markers fill stroke"
     d="m 33.315602,15.657744 -0.103901,3.12563 3.844333,3.8801 -0.1039,8.83801"
     id="path15" />
  <path
     style="opacity:1;mix-blend-mode:normal;fill:none;fill-opacity:1;stroke:#18304e;stroke-width:1.32467;stroke-linecap:butt;stroke-linejoin:round;stroke-miterlimit:3.5;stroke-dasharray:none;stroke-opacity:1;paint-order:markers fill stroke"
     d="m 25.454912,42.415574 v 6.10594 H 14.035917"
     id="path10" />
  <path
     style="opacity:1;mix-blend-mode:normal;fill:none;fill-opacity:1;stroke:#18304e;stroke-width:1.302;stroke-linecap:butt;stroke-linejoin:round;stroke-miterlimit:3.5;stroke-dasharray:none;stroke-opacity:1;paint-order:markers fill stroke"
     d="m 33.770509,40.268264 -6.423136,12.23454 v 0"
     id="path11" />
  <path
     style="opacity:1;mix-blend-mode:normal;fill:none;fill-opacity:1;stroke:#39a17f;stroke-width:1.33713;stroke-linecap:butt;stroke-linejoin:round;stroke-miterlimit:3.5;stroke-dasharray:none;stroke-opacity:1;paint-order:markers fill stroke"
     d="m 55.593102,44.866794 v 9.09966"
     id="path22" />
  <path
     style="opacity:1;mix-blend-mode:normal;fill:none;fill-opacity:1;stroke:#18304e;stroke-width:1.38476;stroke-linecap:butt;stroke-linejoin:round;stroke-miterlimit:3.5;stroke-dasharray:none;stroke-opacity:1;paint-order:markers fill stroke"
     d="M 43.970255,37.203394 30.433402,25.774204"
     id="path12" />
  <path
     style="opacity:1;mix-blend-mode:normal;fill:none;fill-opacity:1;stroke:#18304e;stroke-width:1.302;stroke-linecap:butt;stroke-linejoin:round;stroke-miterlimit:3.5;stroke-dasharray:none;stroke-opacity:1;paint-order:markers fill stroke"
     d="m 53.108132,42.714484 10.71389,9.72354"
     id="path14" />
  <path
     style="opacity:1;mix-blend-mode:normal;fill:none;fill-opacity:1;stroke:#18304e;stroke-width:1.302;stroke-linecap:butt;stroke-linejoin:round;stroke-miterlimit:3.5;stroke-dasharray:none;stroke-opacity:1;paint-order:markers fill stroke"
     d="m 44.01694,44.091554 -9.022977,6.11727 v 9.6347"
     id="path8" />
  <path
     style="opacity:1;mix-blend-mode:normal;fill:none;fill-opacity:1;stroke:#18304e;stroke-width:1.302;stroke-linecap:butt;stroke-linejoin:round;stroke-miterlimit:3.5;stroke-dasharray:none;stroke-opacity:1;paint-order:markers fill stroke"
     d="m 47.887392,46.168784 0.0838,10.27134 5.99511,6.91743 v 0.0419"
     id="path6" />
  <path
     style="opacity:1;fill:none;fill-opacity:1;stroke:#18304e;stroke-width:1.302;stroke-linecap:butt;stroke-linejoin:round;stroke-miterlimit:3.5;stroke-dasharray:none;stroke-opacity:1;paint-order:markers fill stroke"
     d="m 42.329139,39.998604 -14.400461,-0.0512"
     id="path23" />
  <g
     id="layer1"
     transform="translate(-53.400618,-112.05182)">
    <path
       style="opacity:1;fill:none;fill-opacity:1;stroke:#182f4c;stroke-width:3.665;stroke-linecap:round;stroke-miterlimit:3.5;stroke-dasharray:none;stroke-opacity:1;marker-end:url(#marker3);paint-order:markers fill stroke"
       id="path1"
       d="M 140.58917,156.74779 A 39.417194,39.417194 0 0 1 102.02366,191.19647 39.417194,39.417194 0 0 1 62.532645,157.81279" />
    <path
       style="fill:none;fill-opacity:1;stroke:#39a17f;stroke-width:3.665;stroke-linecap:round;stroke-linejoin:round;stroke-miterlimit:3.5;stroke-dasharray:none;stroke-opacity:1;marker-start:url(#ArrowWideRounded);paint-order:markers stroke fill"
       id="path1-3"
       d="m 140.35869,-147.05972 a 39.417194,39.417194 0 0 1 -39.4379,33.17197 39.417194,39.417194 0 0 1 -38.552409,-34.19707"
       transform="scale(1,-1)" />
    <path
       style="opacity:1;fill:none;fill-opacity:1;stroke:#39a17f;stroke-width:1.765;stroke-linecap:round;stroke-linejoin:round;stroke-miterlimit:3.5;stroke-dasharray:none;stroke-opacity:1;paint-order:markers fill stroke"
       id="path4"
       d="m 106.71963,153.4737 a 5.3674192,5.3674192 0 0 1 -6.0274,4.6006 5.3674192,5.3674192 0 0 1 -4.613486,-6.01755 5.3674192,5.3674192 0 0 1 6.007666,-4.62634 5.3674192,5.3674192 0 0 1 4.63919,5.99775" />
    <path
       style="fill:none;fill-opacity:1;stroke:#39a17f;stroke-width:1.10955;stroke-linecap:round;stroke-linejoin:round;stroke-miterlimit:3.5;stroke-dasharray:none;stroke-opacity:1;paint-order:markers fill stroke"
       id="path4-7"
       d="m 104.71523,135.83025 a 3.374186,3.374186 0 0 1 -3.78908,2.89213 3.374186,3.374186 0 0 1 -2.900229,-3.78289 3.374186,3.374186 0 0 1 3.776669,-2.90831 3.374186,3.374186 0 0 1 2.91639,3.77044" />
    <path
       style="fill:none;fill-opacity:1;stroke:#39a17f;stroke-width:0.658932;stroke-linecap:round;stroke-linejoin:round;stroke-miterlimit:3.5;stroke-dasharray:none;stroke-opacity:1;paint-order:markers fill stroke"
       id="path4-7-7"
       d="m 114.75079,131.97517 a 2.0038376,2.0038376 0 0 1 -2.25023,1.71756 2.0038376,2.0038376 0 0 1 -1.72237,-2.24656 2.0038376,2.0038376 0 0 1 2.24286,-1.72717 2.0038376,2.0038376 0 0 1 1.73196,2.23917" />
    <path
       style="fill:none;fill-opacity:1;stroke:#39a17f;stroke-width:0.658932;stroke-linecap:round;stroke-linejoin:round;stroke-miterlimit:3.5;stroke-dasharray:none;stroke-opacity:1;paint-order:markers fill stroke"
       id="path4-7-7-9"
       d="m 112.63678,144.16065 a 2.0038376,2.0038376 0 0 1 -2.25023,1.71756 2.0038376,2.0038376 0 0 1 -1.72237,-2.24655 2.0038376,2.0038376 0 0 1 2.24286,-1.72717 2.0038376,2.0038376 0 0 1 1.73197,2.23916" />
    <path
       style="fill:none;fill-opacity:1;stroke:#39a17f;stroke-width:0.658932;stroke-linecap:round;stroke-linejoin:round;stroke-miterlimit:3.5;stroke-dasharray:none;stroke-opacity:1;paint-order:markers fill stroke"
       id="path4-7-7-56"
       d="m 110.89373,167.99502 a 2.0038376,2.0038376 0 0 1 -2.25023,1.71756 2.0038376,2.0038376 0 0 1 -1.72237,-2.24656 2.0038376,2.0038376 0 0 1 2.24286,-1.72717 2.0038376,2.0038376 0 0 1 1.73197,2.23917" />
    <path
       style="fill:none;fill-opacity:1;stroke:#39a17f;stroke-width:0.658932;stroke-linecap:round;stroke-linejoin:round;stroke-miterlimit:3.5;stroke-dasharray:none;stroke-opacity:1;paint-order:markers fill stroke"
       id="path4-7-7-5"
       d="m 122.4328,139.16734 a 2.0038376,2.0038376 0 0 1 -2.25023,1.71755 2.0038376,2.0038376 0 0 1 -1.72237,-2.24655 2.0038376,2.0038376 0 0 1 2.24286,-1.72717 2.0038376,2.0038376 0 0 1 1.73197,2.23917" />
    <path
       style="fill:none;fill-opacity:1;stroke:#18304e;stroke-width:1.10955;stroke-linecap:round;stroke-linejoin:round;stroke-miterlimit:3.5;stroke-dasharray:none;stroke-opacity:1;paint-order:markers fill stroke"
       id="path4-7-5"
       d="m 122.80509,167.03624 a 3.374186,3.374186 0 0 1 -3.78908,2.89213 3.374186,3.374186 0 0 1 -2.90023,-3.78288 3.374186,3.374186 0 0 1 3.77667,-2.90832 3.374186,3.374186 0 0 1 2.91639,3.77044" />
    <path
       style="fill:none;fill-opacity:1;stroke:#18304e;stroke-width:1.10955;stroke-linecap:round;stroke-linejoin:round;stroke-miterlimit:3.5;stroke-dasharray:none;stroke-opacity:1;paint-order:markers fill stroke"
       id="path4-7-5-9"
       d="m 84.718504,136.31139 a 3.374186,3.374186 0 0 1 -3.78908,2.89213 3.374186,3.374186 0 0 1 -2.90023,-3.78289 3.374186,3.374186 0 0 1 3.776671,-2.90831 3.374186,3.374186 0 0 1 2.916389,3.77044" />
    <path
       style="fill:none;fill-opacity:1;stroke:#18304e;stroke-width:0.658932;stroke-linecap:round;stroke-linejoin:round;stroke-miterlimit:3.5;stroke-dasharray:none;stroke-opacity:1;paint-order:markers fill stroke"
       id="path4-7-7-8"
       d="m 110.57547,177.4237 a 2.0038376,2.0038376 0 0 1 -2.25023,1.71756 2.0038376,2.0038376 0 0 1 -1.72237,-2.24655 2.0038376,2.0038376 0 0 1 2.24286,-1.72718 2.0038376,2.0038376 0 0 1 1.73197,2.23917" />
    <path
       style="fill:none;fill-opacity:1;stroke:#18304e;stroke-width:0.658932;stroke-linecap:round;stroke-linejoin:round;stroke-miterlimit:3.5;stroke-dasharray:none;stroke-opacity:1;paint-order:markers fill stroke"
       id="path4-7-7-4"
       d="m 97.280954,178.28729 a 2.0038376,2.0038376 0 0 1 -2.250232,1.71755 2.0038376,2.0038376 0 0 1 -1.722368,-2.24655 2.0038376,2.0038376 0 0 1 2.242862,-1.72717 2.0038376,2.0038376 0 0 1 1.731965,2.23916" />
    <path
       style="fill:none;fill-opacity:1;stroke:#18304e;stroke-width:0.658932;stroke-linecap:round;stroke-linejoin:round;stroke-miterlimit:3.5;stroke-dasharray:none;stroke-opacity:1;paint-order:markers fill stroke"
       id="path4-7-7-57"
       d="m 90.254785,173.84409 a 2.0038376,2.0038376 0 0 1 -2.250232,1.71756 2.0038376,2.0038376 0 0 1 -1.722368,-2.24655 2.0038376,2.0038376 0 0 1 2.242863,-1.72717 2.0038376,2.0038376 0 0 1 1.731964,2.23916" />
    <path
       style="fill:none;fill-opacity:1;stroke:#18304e;stroke-width:0.658932;stroke-linecap:round;stroke-linejoin:round;stroke-miterlimit:3.5;stroke-dasharray:none;stroke-opacity:1;paint-order:markers fill stroke"
       id="path4-7-7-85"
       d="m 82.2194,166.45576 a 2.0038376,2.0038376 0 0 1 -2.250232,1.71756 2.0038376,2.0038376 0 0 1 -1.722368,-2.24656 2.0038376,2.0038376 0 0 1 2.242862,-1.72717 2.0038376,2.0038376 0 0 1 1.731965,2.23917" />
    <path
       style="fill:none;fill-opacity:1;stroke:#18304e;stroke-width:0.658932;stroke-linecap:round;stroke-linejoin:round;stroke-miterlimit:3.5;stroke-dasharray:none;stroke-opacity:1;paint-order:markers fill stroke"
       id="path4-7-7-85-32"
       d="m 88.729463,126.12511 a 2.0038376,2.0038376 0 0 1 -2.250232,1.71756 2.0038376,2.0038376 0 0 1 -1.722368,-2.24656 2.0038376,2.0038376 0 0 1 2.242863,-1.72717 2.0038376,2.0038376 0 0 1 1.731964,2.23917" />
    <path
       style="fill:none;fill-opacity:1;stroke:#18304e;stroke-width:1.002;stroke-linecap:round;stroke-linejoin:round;stroke-miterlimit:3.5;stroke-dasharray:none;stroke-opacity:1;paint-order:markers fill stroke"
       id="path4-7-7-85-3"
       d="m 81.246337,152.36957 a 2.4398575,2.4398575 0 0 1 -2.739865,2.09128 2.4398575,2.4398575 0 0 1 -2.097143,-2.73538 2.4398575,2.4398575 0 0 1 2.730893,-2.10299 2.4398575,2.4398575 0 0 1 2.108826,2.72639" />
    <path
       style="fill:none;fill-opacity:1;stroke:#39a17f;stroke-width:1.002;stroke-linecap:round;stroke-linejoin:round;stroke-miterlimit:3.5;stroke-dasharray:none;stroke-opacity:1;paint-order:markers fill stroke"
       id="path4-7-7-85-3-1"
       d="m 126.86707,152.39334 a 2.4398575,2.4398575 0 0 1 -2.73986,2.09129 2.4398575,2.4398575 0 0 1 -2.09715,-2.73539 2.4398575,2.4398575 0 0 1 2.7309,-2.10299 2.4398575,2.4398575 0 0 1 2.10882,2.72639" />
  </g>
  <text
     xml:space="preserve"
     transform="matrix(0.24597327,0,0,0.24597327,-51.055082,-98.687056)"
     id="text1"
     style="font-size:74.6667px;text-align:start;writing-mode:lr-tb;direction:ltr;white-space:pre;shape-inside:url(#rect1);display:inline;fill:none;stroke:#18304e;stroke-width:4.92094;stroke-linejoin:round;stroke-miterlimit:3.5;paint-order:markers fill stroke"
     x="136.23689"
     y="0"><tspan
       x="204.10742"
       y="805.25849"
       id="tspan3"><tspan
         style="font-family:Montserrat;-inkscape-font-specification:Montserrat;fill:#39a27f;stroke:#3aa17f"
         id="tspan1">Inter</tspan><tspan
         style="font-family:Montserrat;-inkscape-font-specification:Montserrat;fill:#19304d"
         id="tspan2">CoML</tspan></tspan></text>
  <path
     style="fill:#826666;fill-opacity:1;stroke:#babbbd;stroke-width:0.50391;stroke-linejoin:round;stroke-miterlimit:3.5;stroke-dasharray:none;stroke-opacity:1;paint-order:markers fill stroke"
     d="M 0.57750418,104.9419 H 95.595372 v 0 0"
     id="path5" />
  <text
     xml:space="preserve"
     style="font-size:5.18368px;font-family:Gotham;-inkscape-font-specification:Gotham;text-align:center;letter-spacing:0.366708px;writing-mode:lr-tb;direction:ltr;text-anchor:middle;fill:#826666;fill-opacity:1;stroke:#babbbd;stroke-width:0.614693;stroke-linejoin:round;stroke-miterlimit:3.5;stroke-dasharray:none;stroke-opacity:1;paint-order:markers fill stroke"
     x="52.184784"
     y="103.52514"
     id="text8"
     transform="scale(0.92374256,1.0825527)"><tspan
       id="tspan8"
       style="font-style:normal;font-variant:normal;font-weight:normal;font-stretch:normal;font-size:5.18368px;font-family:Montserrat;-inkscape-font-specification:Montserrat;letter-spacing:0.366708px;fill:#bbbcbe;fill-opacity:1;stroke-width:0.614693"
       x="52.368141"
       y="103.52514">Control Theory &amp; Machine Learning</tspan></text>
</svg>
